<svg width="678" height="206" viewBox="0 0 678 206" fill="none" xmlns="http://www.w3.org/2000/svg">
<path d="M208.439 8.75494V129.697H221.614V8.75494H208.439Z" fill="white"/>
<path fill-rule="evenodd" clip-rule="evenodd" d="M269.558 53.575C284.198 53.575 292.066 61.4559 295.543 65.9337V55.3661H308.718V129.697H295.543V119.309C291.151 124.861 282.917 131.847 269.558 131.847C250.345 131.847 232.595 118.592 232.595 92.4422C232.595 66.8292 250.162 53.575 269.558 53.575ZM296.275 92.6213C296.275 73.4564 282.734 65.0381 271.022 65.0381C258.03 65.0381 246.136 74.3519 246.136 92.4422C246.136 108.383 255.285 120.384 271.022 120.384C287.125 120.384 296.275 107.308 296.275 92.6213Z" fill="white"/>
<path fill-rule="evenodd" clip-rule="evenodd" d="M382.713 65.9337C376.674 58.2319 367.891 53.575 356.728 53.575C346.481 53.575 337.149 57.5155 330.744 63.6053C325.254 68.9786 319.765 77.9342 319.765 92.4422C319.765 107.488 325.62 116.801 330.744 121.816C336.6 127.548 345.566 131.847 356.728 131.847C370.087 131.847 378.321 124.861 382.713 119.309V130.056C382.696 130.167 382.678 130.34 382.655 130.569C382.467 132.395 381.919 137.745 378.504 143.156C374.112 150.321 367.708 153.545 358.375 153.545C352.52 153.545 345.566 152.291 340.076 146.381C339.616 145.626 339.382 145.28 339.195 145.005C338.768 144.376 338.592 144.117 336.522 140.151H323.53C325.443 148.978 328.26 152.188 331.11 154.978C336.234 159.993 345.2 165.543 358.192 165.543C372.466 165.543 382.896 158.739 388.569 151.217C395.888 141.544 395.888 130.081 395.888 127.906V55.3661H382.713V65.9337ZM358.192 65.0381C364.963 65.0381 371.185 67.5457 375.393 71.6653C380.151 76.143 383.445 83.8448 383.445 92.6213C383.445 101.398 379.968 109.279 374.844 114.115C370.636 118.234 365.146 120.384 358.192 120.384C351.239 120.384 346.115 118.055 341.906 114.294C334.587 107.667 333.306 98.8902 333.306 92.4422C333.306 86.3524 334.587 78.4715 340.991 72.0235C344.651 68.4412 350.141 65.0381 358.192 65.0381Z" fill="white"/>
<path d="M432.919 53.575C436.945 53.575 447.741 54.2915 453.78 67.0084L442.984 72.5608C441.154 68.2621 437.311 65.0381 432.37 65.0381C427.612 65.0381 423.221 67.7248 423.221 73.4564C423.221 78.8297 426.881 80.4417 435.481 84.0239C446.46 88.5017 451.584 91.9049 454.512 95.4871C457.806 99.4275 458.538 103.368 458.538 107.488C458.538 123.07 447.009 131.847 432.37 131.847C429.259 131.847 412.241 131.488 405.837 112.861L417.182 108.204C418.646 112.144 423.038 120.384 432.553 120.384C441.154 120.384 444.996 114.115 444.996 108.562C444.996 101.577 439.873 99.2484 432.736 96.2035C423.587 92.2631 417.731 89.3973 414.254 85.2777C411.326 81.6955 410.777 78.1133 410.777 74.3519C410.777 61.2768 420.11 53.575 432.919 53.575Z" fill="white"/>
<path d="M466.875 129.697H480.05V90.8302C480.05 85.4568 480.416 76.6804 485.54 70.7697C489.383 66.2919 494.323 65.0381 498.898 65.0381C504.754 65.0381 508.78 67.1875 511.341 70.4115C514.452 74.3519 514.818 79.5462 514.818 84.0239V129.697H527.993V83.6657C527.993 75.4266 527.445 69.3368 523.602 63.7844C519.027 57.1572 510.792 53.575 501.826 53.575C489.2 53.575 482.429 60.9186 480.05 63.9635V8.75494H466.875V129.697Z" fill="white"/>
<path d="M543.681 129.697V55.3661H556.856V129.697H543.681Z" fill="white"/>
<path fill-rule="evenodd" clip-rule="evenodd" d="M585.769 119.309C591.442 126.473 600.043 131.847 612.303 131.847C635.36 131.847 648.718 113.398 648.718 92.9795C648.718 72.919 635.542 53.575 611.754 53.575C606.264 53.575 594.736 54.8288 585.769 65.7546V55.3661H572.594V148.506H585.769V119.309ZM610.473 120.384C594.919 120.384 585.038 108.025 585.038 92.8004C585.038 74.8893 598.03 65.0381 610.29 65.0381C622.55 65.0381 635.177 74.7102 635.177 92.9795C635.177 107.846 625.844 120.384 610.473 120.384Z" fill="white"/>
<path d="M141.539 9.1841H197.168V21.7219H155.08V58.0528H195.704V70.5906H155.08V129.697H141.539V9.1841Z" fill="white"/>
<path d="M541.465 29.0537C541.465 34.0366 545.643 38.1297 550.73 38.1297C555.816 38.1297 559.994 34.0366 559.994 29.0537C559.994 24.0708 555.816 19.9777 550.73 19.9777C545.643 19.9777 541.465 24.0708 541.465 29.0537Z" fill="white"/>
<path d="M532.902 195.469C530.755 198.005 527.728 199.494 524.315 199.494C518.15 199.494 511.875 195.083 511.875 186.923C511.875 180.142 516.664 174.077 524.04 174.077C525.361 174.077 529.544 174.352 532.902 178.212V169.831C529.544 168.012 526.462 167.571 523.875 167.571C518.645 167.571 514.077 168.949 510.389 172.423C507.252 175.345 504.5 180.142 504.5 186.813C504.5 192.216 506.151 196.792 510.389 200.872C513.471 203.795 517.38 206 523.819 206C527.783 206 530.7 205.008 532.902 203.85V195.469Z" fill="#4F9CF0"/>
<path d="M560.066 167.571C548.507 167.571 540.471 175.62 540.471 186.813C540.471 198.005 548.507 206 560.066 206C571.625 206 579.661 198.005 579.661 186.813C579.661 175.62 571.625 167.571 560.066 167.571ZM560.066 199.494C552.91 199.494 547.846 194.256 547.846 186.813C547.846 179.37 552.91 174.077 560.066 174.077C567.222 174.077 572.285 179.37 572.285 186.813C572.285 194.256 567.222 199.494 560.066 199.494Z" fill="#4F9CF0"/>
<path d="M589.008 168.398V205.173H598.475C603.594 205.173 607.612 204.677 611.905 201.644C616.749 198.226 619.281 192.933 619.281 186.813C619.281 180.693 616.694 175.345 612.236 171.982C608.163 168.949 603.704 168.398 598.585 168.398H589.008ZM596.163 174.573H598.365C600.787 174.573 604.42 174.793 607.392 176.999C610.309 179.204 611.905 182.953 611.905 186.813C611.905 190.728 610.254 194.477 607.337 196.572C604.144 198.888 600.181 198.998 598.365 198.998H596.163V174.573Z" fill="#4F9CF0"/>
<path d="M649 168.398H628.634V205.173H649V198.998H635.79V188.963H648.449V182.788H635.79V174.573H649V168.398Z" fill="#4F9CF0"/>
<path fill-rule="evenodd" clip-rule="evenodd" d="M7.58788 7.60053L98.2368 7.60052L44.3523 58.9601H7.58788L7.58788 7.60053ZM0.000132277 65.8794L0.0001297 6.93127C0.000129533 3.10324 3.09814 4.2317e-06 6.91974 4.06465e-06L99.9082 0C106.156 -2.73104e-07 109.204 7.63841 104.678 11.9526L55.3597 58.9601H99.9082C106.156 58.9601 109.204 66.5985 104.678 70.9127L11.6897 159.544C7.28346 163.744 0.000126204 160.615 0.000125938 154.523L0.00012207 65.8914C0.00012207 65.8874 0.000125473 65.8834 0.000132277 65.8794ZM47.3855 66.5606H98.2368L7.58787 152.962L7.58787 104.494L47.3855 66.5606ZM36.3782 66.5606L7.58788 94.0019L7.58787 66.5606H36.3782Z" fill="#4F9CF0"/>
<path d="M653.816 45.427V59.7084H651.313V45.427H647.5V43.0666H657.619V45.427H653.816Z" fill="white"/>
<path d="M659.273 59.7084L662.764 41.8163L668.458 54.7503L674.355 41.8163L677.492 59.7084H674.924L673.324 49.6629L668.415 60.4737L663.645 49.6522L661.862 59.7084H659.273Z" fill="white"/>
</svg>
