<svg width="74" height="115" viewBox="0 0 74 115" fill="none" xmlns="http://www.w3.org/2000/svg">
<path d="M0.118567 110.141C0.101367 110.964 0.333456 111.773 0.784362 112.462C1.23527 113.151 1.88391 113.687 2.64513 114.001C3.39725 114.339 4.23374 114.443 5.04581 114.299C5.85788 114.156 6.60795 113.771 7.19849 113.195L71.8274 54.8902C72.4244 54.3186 72.839 53.5834 73.0194 52.7768C73.1997 51.9703 73.1376 51.1284 72.8409 50.3571C72.5443 49.5857 72.0262 48.9192 71.3519 48.4414C70.6776 47.9636 69.8771 47.6957 69.051 47.6714H34.0744L0.118567 79.9337V110.141Z" fill="#FF4D56"/>
<path d="M31.4918 42.2574L71.8547 7.21874C72.4406 6.65928 72.8482 5.93909 73.026 5.14869C73.2038 4.35829 73.1441 3.53296 72.8542 2.77644C72.5764 1.9663 72.0525 1.26319 71.3556 0.765393C70.6586 0.267599 69.8236 9.89683e-10 68.9672 9.89682e-10L4.33823 9.89683e-10C3.22376 -2.41178e-05 2.15452 0.440788 1.36388 1.22623C0.573234 2.01168 0.125374 3.07798 0.118042 4.19242L0.118042 42.2574H31.4918Z" fill="#4F9CF0"/>
<path d="M0.11853 47.8102V72.4095L25.9672 47.8102H0.11853Z" fill="#FECC08"/>
</svg>
